<svg width="32" height="32" xmlns="http://www.w3.org/2000/svg" xmlns:xlink="http://www.w3.org/1999/xlink">
 <!-- Generator: Sketch 63.1 (92452) - https://sketch.com -->
 <title>icon-fav-hover</title>
 <desc>Created with Sketch.</desc>
 <defs>
  <path id="path-1" d="m16.277,9.49709c0.9581,-0.95855 2.25782,-1.49709 3.61309,-1.49709c1.35527,0 2.65499,0.53854 3.61309,1.49709c0.95828,0.95783 1.49682,2.25755 1.49682,3.61282c0,1.35527 -0.53854,2.65499 -1.49696,3.61295l-6.94752,6.94753c-0.30692,0.30692 -0.80454,0.30692 -1.11146,0l-6.94753,-6.94753c-1.99537,-1.99538 -1.99537,-5.23052 0,-7.2259c1.99538,-1.99538 5.23053,-1.99538 7.22591,0l0.27735,0.27734l0.27721,-0.27721zm-0.27721,12.50611l5.55872,-5.55872l0.83321,-0.8332c0.6636,-0.6633 1.03644,-1.56311 1.03644,-2.50137c0,-0.93826 -0.37284,-1.83807 -1.03644,-2.50137c-0.66356,-0.66386 -1.56337,-1.0367 -2.50163,-1.0367c-0.93826,0 -1.83807,0.37284 -2.5015,1.03657l-0.83307,0.83308c-0.30692,0.30692 -0.80454,0.30692 -1.11146,0l-0.83307,-0.83308c-1.38154,-1.38154 -3.62146,-1.38154 -5.003,0c-1.38154,1.38154 -1.38154,3.62146 0,5.003l6.3918,6.39179z"/>
 </defs>
 <g>
  <title>background</title>
  <rect fill="none" id="canvas_background" height="34" width="34" y="-1" x="-1"/>
 </g>
 <g>
  <title>Layer 1</title>
  <g fill-rule="evenodd" fill="none" id="GIFOS">
   <g id="00-UI-Kit">
    <g id="icon-fav-hover">
     <rect rx="6" height="32" width="32" y="0.16949" x="-0.16949" fill-rule="nonzero" fill="#FFFFFF" id="Rectangle-Copy-7"/>
     <mask id="mask-2">
      <use id="svg_1" xlink:href="#path-1"/>
     </mask>
     <use id="svg_2" x="-0.16949" y="0.16949" xlink:href="#path-1" fill-rule="nonzero" fill="#572EE5"/>
    </g>
   </g>
  </g>
  <!-- Generator: Sketch 63.1 (92452) - https://sketch.com -->
  <desc>Created with Sketch.</desc>
  <defs>
   <path id="svg_13" d="m275.32232,427c1.50585,0 2.94999,0.60965 4.01454,1.69475c1.06476,1.0843 1.66314,2.55563 1.66314,4.08984c0,1.53421 -0.59838,3.00554 -1.66328,4.08999l-7.71948,7.86484c-0.34102,0.34744 -0.89393,0.34744 -1.23495,0l-7.71947,-7.86484c-2.21709,-2.25884 -2.21709,-5.92114 0,-8.17998c2.21709,-2.25883 5.8117,-2.25883 8.02878,0l0.30817,0.31397l0.30801,-0.31382c1.06455,-1.0851 2.50869,-1.69475 4.01454,-1.69475z"/>
  </defs>
  <g id="svg_17">
   <g transform="matrix(0.875486, 0, 0, 0.835946, -8.95989, 30.0964)" fill-rule="evenodd" fill="none" id="svg_10">
    <g id="svg_11">
     <mask id="svg_14">
      <use id="svg_16" xlink:href="#svg_13"/>
     </mask>
     <use x="-242.49182" y="-452.11255" xlink:href="#svg_13" fill-rule="nonzero" fill="#572EE5" id="svg_12"/>
    </g>
   </g>
  </g>
 </g>
</svg>